<mxfile host="app.diagrams.net" modified="2022-01-02T03:30:36.303Z" agent="5.0 (Macintosh; Intel Mac OS X 10_15_7) AppleWebKit/605.1.15 (KHTML, like Gecko) Version/15.2 Safari/605.1.15" etag="XlMVWD4Va3xiC8ZduU-y" version="16.1.0" type="github">
  <diagram id="C5RBs43oDa-KdzZeNtuy" name="Page-1">
    <mxGraphModel dx="848" dy="574" grid="1" gridSize="10" guides="1" tooltips="1" connect="1" arrows="1" fold="1" page="1" pageScale="1" pageWidth="827" pageHeight="1169" math="0" shadow="0">
      <root>
        <mxCell id="WIyWlLk6GJQsqaUBKTNV-0" />
        <mxCell id="WIyWlLk6GJQsqaUBKTNV-1" parent="WIyWlLk6GJQsqaUBKTNV-0" />
        <mxCell id="6ApTMov5V20SEGdIWfBn-2" value="" style="edgeStyle=orthogonalEdgeStyle;rounded=0;orthogonalLoop=1;jettySize=auto;html=1;" edge="1" parent="WIyWlLk6GJQsqaUBKTNV-1" source="WIyWlLk6GJQsqaUBKTNV-3" target="6ApTMov5V20SEGdIWfBn-1">
          <mxGeometry relative="1" as="geometry" />
        </mxCell>
        <mxCell id="WIyWlLk6GJQsqaUBKTNV-3" value="Deal Cards" style="rounded=1;whiteSpace=wrap;html=1;fontSize=12;glass=0;strokeWidth=1;shadow=0;" parent="WIyWlLk6GJQsqaUBKTNV-1" vertex="1">
          <mxGeometry x="160" y="80" width="120" height="40" as="geometry" />
        </mxCell>
        <mxCell id="6ApTMov5V20SEGdIWfBn-0" value="BlackJack" style="rounded=0;whiteSpace=wrap;html=1;" vertex="1" parent="WIyWlLk6GJQsqaUBKTNV-1">
          <mxGeometry x="10" y="10" width="210" height="30" as="geometry" />
        </mxCell>
        <mxCell id="6ApTMov5V20SEGdIWfBn-5" value="" style="edgeStyle=orthogonalEdgeStyle;rounded=0;orthogonalLoop=1;jettySize=auto;html=1;" edge="1" parent="WIyWlLk6GJQsqaUBKTNV-1" source="6ApTMov5V20SEGdIWfBn-1" target="6ApTMov5V20SEGdIWfBn-4">
          <mxGeometry relative="1" as="geometry" />
        </mxCell>
        <mxCell id="6ApTMov5V20SEGdIWfBn-1" value="Reval 1 dealer card and both player cards" style="whiteSpace=wrap;html=1;rounded=1;glass=0;strokeWidth=1;shadow=0;" vertex="1" parent="WIyWlLk6GJQsqaUBKTNV-1">
          <mxGeometry x="160" y="190" width="120" height="60" as="geometry" />
        </mxCell>
        <mxCell id="6ApTMov5V20SEGdIWfBn-7" value="" style="edgeStyle=orthogonalEdgeStyle;rounded=0;orthogonalLoop=1;jettySize=auto;html=1;" edge="1" parent="WIyWlLk6GJQsqaUBKTNV-1" source="6ApTMov5V20SEGdIWfBn-4" target="6ApTMov5V20SEGdIWfBn-6">
          <mxGeometry relative="1" as="geometry" />
        </mxCell>
        <mxCell id="6ApTMov5V20SEGdIWfBn-8" value="Hit" style="edgeLabel;html=1;align=center;verticalAlign=middle;resizable=0;points=[];" vertex="1" connectable="0" parent="6ApTMov5V20SEGdIWfBn-7">
          <mxGeometry x="0.0087" y="1" relative="1" as="geometry">
            <mxPoint as="offset" />
          </mxGeometry>
        </mxCell>
        <mxCell id="6ApTMov5V20SEGdIWfBn-18" value="" style="edgeStyle=orthogonalEdgeStyle;rounded=0;orthogonalLoop=1;jettySize=auto;html=1;" edge="1" parent="WIyWlLk6GJQsqaUBKTNV-1" source="6ApTMov5V20SEGdIWfBn-4" target="6ApTMov5V20SEGdIWfBn-17">
          <mxGeometry relative="1" as="geometry" />
        </mxCell>
        <mxCell id="6ApTMov5V20SEGdIWfBn-19" value="PASS" style="edgeLabel;html=1;align=center;verticalAlign=middle;resizable=0;points=[];" vertex="1" connectable="0" parent="6ApTMov5V20SEGdIWfBn-18">
          <mxGeometry x="-0.051" relative="1" as="geometry">
            <mxPoint as="offset" />
          </mxGeometry>
        </mxCell>
        <mxCell id="6ApTMov5V20SEGdIWfBn-4" value="Does the player Hit or Pass" style="rhombus;whiteSpace=wrap;html=1;rounded=1;glass=0;strokeWidth=1;shadow=0;" vertex="1" parent="WIyWlLk6GJQsqaUBKTNV-1">
          <mxGeometry x="155" y="300" width="130" height="130" as="geometry" />
        </mxCell>
        <mxCell id="6ApTMov5V20SEGdIWfBn-10" value="" style="edgeStyle=orthogonalEdgeStyle;rounded=0;orthogonalLoop=1;jettySize=auto;html=1;" edge="1" parent="WIyWlLk6GJQsqaUBKTNV-1" source="6ApTMov5V20SEGdIWfBn-6" target="6ApTMov5V20SEGdIWfBn-9">
          <mxGeometry relative="1" as="geometry" />
        </mxCell>
        <mxCell id="6ApTMov5V20SEGdIWfBn-6" value="Add total of cards" style="whiteSpace=wrap;html=1;rounded=1;glass=0;strokeWidth=1;shadow=0;" vertex="1" parent="WIyWlLk6GJQsqaUBKTNV-1">
          <mxGeometry x="160" y="545" width="120" height="60" as="geometry" />
        </mxCell>
        <mxCell id="6ApTMov5V20SEGdIWfBn-12" value="" style="edgeStyle=orthogonalEdgeStyle;rounded=0;orthogonalLoop=1;jettySize=auto;html=1;exitX=0.5;exitY=1;exitDx=0;exitDy=0;" edge="1" parent="WIyWlLk6GJQsqaUBKTNV-1" source="6ApTMov5V20SEGdIWfBn-9" target="6ApTMov5V20SEGdIWfBn-11">
          <mxGeometry relative="1" as="geometry" />
        </mxCell>
        <mxCell id="6ApTMov5V20SEGdIWfBn-15" value="YES" style="edgeLabel;html=1;align=center;verticalAlign=middle;resizable=0;points=[];" vertex="1" connectable="0" parent="6ApTMov5V20SEGdIWfBn-12">
          <mxGeometry x="-0.1333" relative="1" as="geometry">
            <mxPoint as="offset" />
          </mxGeometry>
        </mxCell>
        <mxCell id="6ApTMov5V20SEGdIWfBn-14" value="" style="edgeStyle=orthogonalEdgeStyle;rounded=0;orthogonalLoop=1;jettySize=auto;html=1;entryX=0;entryY=0.5;entryDx=0;entryDy=0;exitX=0;exitY=0.5;exitDx=0;exitDy=0;" edge="1" parent="WIyWlLk6GJQsqaUBKTNV-1" source="6ApTMov5V20SEGdIWfBn-9" target="6ApTMov5V20SEGdIWfBn-4">
          <mxGeometry relative="1" as="geometry">
            <mxPoint x="220" y="835" as="targetPoint" />
            <Array as="points">
              <mxPoint x="70" y="715" />
              <mxPoint x="70" y="365" />
            </Array>
          </mxGeometry>
        </mxCell>
        <mxCell id="6ApTMov5V20SEGdIWfBn-16" value="NO" style="edgeLabel;html=1;align=center;verticalAlign=middle;resizable=0;points=[];" vertex="1" connectable="0" parent="6ApTMov5V20SEGdIWfBn-14">
          <mxGeometry x="-0.15" y="2" relative="1" as="geometry">
            <mxPoint y="-73" as="offset" />
          </mxGeometry>
        </mxCell>
        <mxCell id="6ApTMov5V20SEGdIWfBn-9" value="Is total &amp;gt; 21" style="rhombus;whiteSpace=wrap;html=1;rounded=1;glass=0;strokeWidth=1;shadow=0;" vertex="1" parent="WIyWlLk6GJQsqaUBKTNV-1">
          <mxGeometry x="180" y="675" width="80" height="80" as="geometry" />
        </mxCell>
        <mxCell id="6ApTMov5V20SEGdIWfBn-37" value="" style="edgeStyle=orthogonalEdgeStyle;rounded=0;orthogonalLoop=1;jettySize=auto;html=1;" edge="1" parent="WIyWlLk6GJQsqaUBKTNV-1" source="6ApTMov5V20SEGdIWfBn-11" target="6ApTMov5V20SEGdIWfBn-36">
          <mxGeometry relative="1" as="geometry" />
        </mxCell>
        <mxCell id="6ApTMov5V20SEGdIWfBn-11" value="You Lose" style="whiteSpace=wrap;html=1;rounded=1;glass=0;strokeWidth=1;shadow=0;" vertex="1" parent="WIyWlLk6GJQsqaUBKTNV-1">
          <mxGeometry x="50" y="830" width="120" height="60" as="geometry" />
        </mxCell>
        <mxCell id="6ApTMov5V20SEGdIWfBn-21" value="" style="edgeStyle=orthogonalEdgeStyle;rounded=0;orthogonalLoop=1;jettySize=auto;html=1;" edge="1" parent="WIyWlLk6GJQsqaUBKTNV-1" source="6ApTMov5V20SEGdIWfBn-17" target="6ApTMov5V20SEGdIWfBn-20">
          <mxGeometry relative="1" as="geometry" />
        </mxCell>
        <mxCell id="6ApTMov5V20SEGdIWfBn-17" value="Reveal Dealer Second Card" style="whiteSpace=wrap;html=1;rounded=1;glass=0;strokeWidth=1;shadow=0;" vertex="1" parent="WIyWlLk6GJQsqaUBKTNV-1">
          <mxGeometry x="370" y="335" width="120" height="60" as="geometry" />
        </mxCell>
        <mxCell id="6ApTMov5V20SEGdIWfBn-23" value="" style="edgeStyle=orthogonalEdgeStyle;rounded=0;orthogonalLoop=1;jettySize=auto;html=1;" edge="1" parent="WIyWlLk6GJQsqaUBKTNV-1" source="6ApTMov5V20SEGdIWfBn-20" target="6ApTMov5V20SEGdIWfBn-22">
          <mxGeometry relative="1" as="geometry" />
        </mxCell>
        <mxCell id="6ApTMov5V20SEGdIWfBn-24" value="No" style="edgeLabel;html=1;align=center;verticalAlign=middle;resizable=0;points=[];" vertex="1" connectable="0" parent="6ApTMov5V20SEGdIWfBn-23">
          <mxGeometry x="0.1083" y="2" relative="1" as="geometry">
            <mxPoint as="offset" />
          </mxGeometry>
        </mxCell>
        <mxCell id="6ApTMov5V20SEGdIWfBn-26" value="YES" style="edgeStyle=orthogonalEdgeStyle;rounded=0;orthogonalLoop=1;jettySize=auto;html=1;" edge="1" parent="WIyWlLk6GJQsqaUBKTNV-1" source="6ApTMov5V20SEGdIWfBn-20" target="6ApTMov5V20SEGdIWfBn-25">
          <mxGeometry relative="1" as="geometry" />
        </mxCell>
        <mxCell id="6ApTMov5V20SEGdIWfBn-20" value="Is dealer Total &amp;gt; 21?" style="rhombus;whiteSpace=wrap;html=1;rounded=1;glass=0;strokeWidth=1;shadow=0;" vertex="1" parent="WIyWlLk6GJQsqaUBKTNV-1">
          <mxGeometry x="390" y="465" width="80" height="80" as="geometry" />
        </mxCell>
        <mxCell id="6ApTMov5V20SEGdIWfBn-28" value="" style="edgeStyle=orthogonalEdgeStyle;rounded=0;orthogonalLoop=1;jettySize=auto;html=1;" edge="1" parent="WIyWlLk6GJQsqaUBKTNV-1" source="6ApTMov5V20SEGdIWfBn-22" target="6ApTMov5V20SEGdIWfBn-27">
          <mxGeometry relative="1" as="geometry" />
        </mxCell>
        <mxCell id="6ApTMov5V20SEGdIWfBn-29" value="Yes" style="edgeLabel;html=1;align=center;verticalAlign=middle;resizable=0;points=[];" vertex="1" connectable="0" parent="6ApTMov5V20SEGdIWfBn-28">
          <mxGeometry x="-0.0722" y="1" relative="1" as="geometry">
            <mxPoint as="offset" />
          </mxGeometry>
        </mxCell>
        <mxCell id="6ApTMov5V20SEGdIWfBn-31" value="" style="edgeStyle=orthogonalEdgeStyle;rounded=0;orthogonalLoop=1;jettySize=auto;html=1;" edge="1" parent="WIyWlLk6GJQsqaUBKTNV-1" source="6ApTMov5V20SEGdIWfBn-22" target="6ApTMov5V20SEGdIWfBn-30">
          <mxGeometry relative="1" as="geometry" />
        </mxCell>
        <mxCell id="6ApTMov5V20SEGdIWfBn-22" value="Is Dealer total &amp;gt; Player Total" style="rhombus;whiteSpace=wrap;html=1;rounded=1;glass=0;strokeWidth=1;shadow=0;" vertex="1" parent="WIyWlLk6GJQsqaUBKTNV-1">
          <mxGeometry x="390" y="625" width="80" height="80" as="geometry" />
        </mxCell>
        <mxCell id="6ApTMov5V20SEGdIWfBn-25" value="You Win" style="whiteSpace=wrap;html=1;rounded=1;glass=0;strokeWidth=1;shadow=0;" vertex="1" parent="WIyWlLk6GJQsqaUBKTNV-1">
          <mxGeometry x="530" y="475" width="120" height="60" as="geometry" />
        </mxCell>
        <mxCell id="6ApTMov5V20SEGdIWfBn-27" value="You Lose" style="whiteSpace=wrap;html=1;rounded=1;glass=0;strokeWidth=1;shadow=0;" vertex="1" parent="WIyWlLk6GJQsqaUBKTNV-1">
          <mxGeometry x="530" y="635" width="120" height="60" as="geometry" />
        </mxCell>
        <mxCell id="6ApTMov5V20SEGdIWfBn-33" value="" style="edgeStyle=orthogonalEdgeStyle;rounded=0;orthogonalLoop=1;jettySize=auto;html=1;" edge="1" parent="WIyWlLk6GJQsqaUBKTNV-1" source="6ApTMov5V20SEGdIWfBn-30" target="6ApTMov5V20SEGdIWfBn-32">
          <mxGeometry relative="1" as="geometry" />
        </mxCell>
        <mxCell id="6ApTMov5V20SEGdIWfBn-35" value="" style="edgeStyle=orthogonalEdgeStyle;rounded=0;orthogonalLoop=1;jettySize=auto;html=1;" edge="1" parent="WIyWlLk6GJQsqaUBKTNV-1" source="6ApTMov5V20SEGdIWfBn-30" target="6ApTMov5V20SEGdIWfBn-34">
          <mxGeometry relative="1" as="geometry" />
        </mxCell>
        <mxCell id="6ApTMov5V20SEGdIWfBn-30" value="Is Dealer Total = Player Total" style="rhombus;whiteSpace=wrap;html=1;rounded=1;glass=0;strokeWidth=1;shadow=0;" vertex="1" parent="WIyWlLk6GJQsqaUBKTNV-1">
          <mxGeometry x="390" y="785" width="80" height="80" as="geometry" />
        </mxCell>
        <mxCell id="6ApTMov5V20SEGdIWfBn-32" value="Draw" style="whiteSpace=wrap;html=1;rounded=1;glass=0;strokeWidth=1;shadow=0;" vertex="1" parent="WIyWlLk6GJQsqaUBKTNV-1">
          <mxGeometry x="530" y="795" width="120" height="60" as="geometry" />
        </mxCell>
        <mxCell id="6ApTMov5V20SEGdIWfBn-34" value="You Win" style="whiteSpace=wrap;html=1;rounded=1;glass=0;strokeWidth=1;shadow=0;" vertex="1" parent="WIyWlLk6GJQsqaUBKTNV-1">
          <mxGeometry x="370" y="910" width="120" height="60" as="geometry" />
        </mxCell>
        <mxCell id="6ApTMov5V20SEGdIWfBn-39" value="" style="edgeStyle=orthogonalEdgeStyle;rounded=0;orthogonalLoop=1;jettySize=auto;html=1;" edge="1" parent="WIyWlLk6GJQsqaUBKTNV-1" source="6ApTMov5V20SEGdIWfBn-36" target="6ApTMov5V20SEGdIWfBn-38">
          <mxGeometry relative="1" as="geometry" />
        </mxCell>
        <mxCell id="6ApTMov5V20SEGdIWfBn-36" value="Play again?" style="rhombus;whiteSpace=wrap;html=1;rounded=1;glass=0;strokeWidth=1;shadow=0;" vertex="1" parent="WIyWlLk6GJQsqaUBKTNV-1">
          <mxGeometry x="70" y="960" width="80" height="80" as="geometry" />
        </mxCell>
        <mxCell id="6ApTMov5V20SEGdIWfBn-38" value="Exit" style="ellipse;whiteSpace=wrap;html=1;rounded=1;glass=0;strokeWidth=1;shadow=0;" vertex="1" parent="WIyWlLk6GJQsqaUBKTNV-1">
          <mxGeometry x="50" y="1080" width="120" height="60" as="geometry" />
        </mxCell>
        <mxCell id="6ApTMov5V20SEGdIWfBn-40" value="" style="edgeStyle=orthogonalEdgeStyle;rounded=0;orthogonalLoop=1;jettySize=auto;html=1;exitX=0.5;exitY=1;exitDx=0;exitDy=0;" edge="1" parent="WIyWlLk6GJQsqaUBKTNV-1" target="6ApTMov5V20SEGdIWfBn-42" source="6ApTMov5V20SEGdIWfBn-34">
          <mxGeometry relative="1" as="geometry">
            <mxPoint x="430" y="1015" as="sourcePoint" />
          </mxGeometry>
        </mxCell>
        <mxCell id="6ApTMov5V20SEGdIWfBn-48" style="edgeStyle=orthogonalEdgeStyle;rounded=0;orthogonalLoop=1;jettySize=auto;html=1;entryX=1;entryY=0;entryDx=0;entryDy=0;" edge="1" parent="WIyWlLk6GJQsqaUBKTNV-1" source="6ApTMov5V20SEGdIWfBn-42" target="6ApTMov5V20SEGdIWfBn-38">
          <mxGeometry relative="1" as="geometry">
            <Array as="points">
              <mxPoint x="152" y="1040" />
              <mxPoint x="152" y="1089" />
            </Array>
          </mxGeometry>
        </mxCell>
        <mxCell id="6ApTMov5V20SEGdIWfBn-42" value="Play again?" style="rhombus;whiteSpace=wrap;html=1;rounded=1;glass=0;strokeWidth=1;shadow=0;" vertex="1" parent="WIyWlLk6GJQsqaUBKTNV-1">
          <mxGeometry x="390" y="1000" width="80" height="80" as="geometry" />
        </mxCell>
        <mxCell id="6ApTMov5V20SEGdIWfBn-44" value="" style="edgeStyle=orthogonalEdgeStyle;rounded=0;orthogonalLoop=1;jettySize=auto;html=1;" edge="1" parent="WIyWlLk6GJQsqaUBKTNV-1" target="6ApTMov5V20SEGdIWfBn-46">
          <mxGeometry relative="1" as="geometry">
            <mxPoint x="750" y="450" as="sourcePoint" />
          </mxGeometry>
        </mxCell>
        <mxCell id="6ApTMov5V20SEGdIWfBn-45" value="" style="edgeStyle=orthogonalEdgeStyle;rounded=0;orthogonalLoop=1;jettySize=auto;html=1;" edge="1" parent="WIyWlLk6GJQsqaUBKTNV-1" source="6ApTMov5V20SEGdIWfBn-46">
          <mxGeometry relative="1" as="geometry">
            <mxPoint x="750" y="640" as="targetPoint" />
          </mxGeometry>
        </mxCell>
        <mxCell id="6ApTMov5V20SEGdIWfBn-46" value="Play again?" style="rhombus;whiteSpace=wrap;html=1;rounded=1;glass=0;strokeWidth=1;shadow=0;" vertex="1" parent="WIyWlLk6GJQsqaUBKTNV-1">
          <mxGeometry x="710" y="520" width="80" height="80" as="geometry" />
        </mxCell>
      </root>
    </mxGraphModel>
  </diagram>
</mxfile>
